<svg xmlns="http://www.w3.org/2000/svg" viewBox="0 0 24 24">
  
  <circle cx="12" cy="12" r="11" fill="#5865F2"/>
  <path fill="#ffffff" d="M20.3 4.3A19.9 19.9 0 0 0 16.6 3c-.2.4-.5 1-.7 1.5a18.6 18.6 0 0 0-7.7 0c-.2-.5-.5-1.1-.7-1.5A20 20 0 0 0 3.7 4.3C1.4 7.7.8 11 .9 14.3a20 20 0 0 0 6.2 3.2c.5-.7 1-1.5 1.3-2.3a12 12 0 0 1-2-.9l.5-.4c3.9 1.8 8.1 1.8 12 0l.5.4c-.6.4-1.3.7-2 .9.4.8.8 1.6 1.3 2.3a20 20 0 0 0 6.2-3.2c.2-3.8-.8-7-2.9-10ZM8.6 13.2c-.7 0-1.2-.7-1.2-1.5s.5-1.5 1.2-1.5 1.2.7 1.2 1.5-.5 1.5-1.2 1.5Zm6.8 0c-.7 0-1.2-.7-1.2-1.5s.5-1.5 1.2-1.5 1.2.7 1.2 1.5-.5 1.5-1.2 1.5Z"/>
</svg>
