<svg xmlns="http://www.w3.org/2000/svg" viewBox="0 0 24 24">
  <defs>
  <radialGradient id="igG" cx="30%" cy="107%" r="150%">
    <stop offset="0%" stop-color="#fdf497"/>
    <stop offset="5%" stop-color="#fdf497"/>
    <stop offset="45%" stop-color="#fd5949"/>
    <stop offset="60%" stop-color="#d6249f"/>
    <stop offset="90%" stop-color="#285AEB"/>
  </radialGradient>
</defs>
  <circle cx="12" cy="12" r="11" fill="url(#igG)"/>
  <path fill="#ffffff" d="M7.5 2h9A5.5 5.5 0 0 1 22 7.5v9A5.5 5.5 0 0 1 16.5 22h-9A5.5 5.5 0 0 1 2 16.5v-9A5.5 5.5 0 0 1 7.5 2Zm9 2h-9A3.5 3.5 0 0 0 4 7.5v9A3.5 3.5 0 0 0 7.5 20h9A3.5 3.5 0 0 0 20 16.5v-9A3.5 3.5 0 0 0 16.5 4Zm-4.5 3.5A4.5 4.5 0 1 1 7.5 12 4.5 4.5 0 0 1 12 7.5Zm0 2A2.5 2.5 0 1 0 14.5 12 2.5 2.5 0 0 0 12 9.5Zm5.2-2.2a1.1 1.1 0 1 1-1.1 1.1 1.1 1.1 0 0 1 1.1-1.1Z"/>
</svg>
